<svg xmlns="http://www.w3.org/2000/svg" width="290" height="290" viewBox="0 0 290 290" version="1.1"><path d="M 70.500 16.910 C 67.230 18.297, 63.437 22.671, 62.305 26.358 C 61.723 28.255, 61.394 33.563, 61.575 38.154 C 62.141 52.543, 66.698 68.310, 89.856 136 C 100.239 166.350, 103.795 182.035, 101.164 185.882 C 97.889 190.670, 79.697 179.785, 46.121 152.945 C 37.113 145.744, 28.700 139.456, 27.426 138.972 C 24.009 137.673, 20.470 140.754, 21.351 144.261 C 22.663 149.490, 71.626 187.008, 85.500 193.416 C 102.239 201.147, 112 196.612, 112 181.103 C 112 171.310, 108.137 157.244, 94.945 119 C 76.432 65.330, 72.026 49.445, 72.009 36.321 C 71.994 24.455, 75.111 23.559, 90.500 31.002 C 110.060 40.462, 149.105 70.207, 198.431 113.224 L 202.362 116.652 193.931 126.657 C 189.294 132.160, 174.700 149.430, 161.500 165.035 C 119.186 215.060, 113.954 221.454, 113.320 223.919 C 112.861 225.707, 113.288 226.815, 114.960 228.169 C 116.204 229.176, 117.704 230, 118.295 230 C 119.586 230, 126.656 222.766, 134.079 213.850 C 152.077 192.231, 159.404 183.854, 161.119 182.936 C 162.185 182.366, 162.839 181.549, 162.574 181.120 C 162.309 180.692, 162.969 180.406, 164.041 180.485 C 166.021 180.631, 171.031 185.098, 225 234.849 C 245.307 253.570, 256.228 262.972, 257.679 262.983 C 262.019 263.017, 264.438 258.172, 261.750 254.827 C 261.063 253.971, 251.725 245.216, 241 235.372 C 184.046 183.092, 171.032 170.755, 171.685 169.662 C 172.837 167.734, 207.572 126.594, 209.151 125.286 C 210.806 123.917, 210.184 123.426, 238.500 148.466 C 262.681 169.850, 262.866 170, 265.012 170 C 267.699 170, 270.537 165.489, 269.387 163.044 C 268.537 161.236, 252.215 146.537, 210 109.563 C 148.230 55.463, 109.475 26.606, 87.333 18.226 C 82.052 16.227, 73.658 15.571, 70.500 16.910" stroke="none" fill="#8e3080" fill-rule="evenodd"/><path d="M 0 145.003 L 0 290.007 145.250 289.753 L 290.500 289.500 290.753 144.750 L 291.007 -0 145.503 -0 L 0 0 0 145.003 M 0.487 145.500 C 0.487 225.250, 0.605 257.727, 0.750 217.672 C 0.895 177.616, 0.895 112.366, 0.750 72.672 C 0.605 32.977, 0.487 65.750, 0.487 145.500 M 70.500 16.910 C 67.230 18.297, 63.437 22.671, 62.305 26.358 C 61.723 28.255, 61.394 33.563, 61.575 38.154 C 62.141 52.543, 66.698 68.310, 89.856 136 C 100.239 166.350, 103.795 182.035, 101.164 185.882 C 97.889 190.670, 79.697 179.785, 46.121 152.945 C 37.113 145.744, 28.700 139.456, 27.426 138.972 C 24.009 137.673, 20.470 140.754, 21.351 144.261 C 22.663 149.490, 71.626 187.008, 85.500 193.416 C 102.239 201.147, 112 196.612, 112 181.103 C 112 171.310, 108.137 157.244, 94.945 119 C 76.432 65.330, 72.026 49.445, 72.009 36.321 C 71.994 24.455, 75.111 23.559, 90.500 31.002 C 110.060 40.462, 149.105 70.207, 198.431 113.224 L 202.362 116.652 193.931 126.657 C 189.294 132.160, 174.700 149.430, 161.500 165.035 C 119.186 215.060, 113.954 221.454, 113.320 223.919 C 112.861 225.707, 113.288 226.815, 114.960 228.169 C 116.204 229.176, 117.704 230, 118.295 230 C 119.586 230, 126.656 222.766, 134.079 213.850 C 152.077 192.231, 159.404 183.854, 161.119 182.936 C 162.185 182.366, 162.839 181.549, 162.574 181.120 C 162.309 180.692, 162.969 180.406, 164.041 180.485 C 166.021 180.631, 171.031 185.098, 225 234.849 C 245.307 253.570, 256.228 262.972, 257.679 262.983 C 262.019 263.017, 264.438 258.172, 261.750 254.827 C 261.063 253.971, 251.725 245.216, 241 235.372 C 184.046 183.092, 171.032 170.755, 171.685 169.662 C 172.837 167.734, 207.572 126.594, 209.151 125.286 C 210.806 123.917, 210.184 123.426, 238.500 148.466 C 262.681 169.850, 262.866 170, 265.012 170 C 267.699 170, 270.537 165.489, 269.387 163.044 C 268.537 161.236, 252.215 146.537, 210 109.563 C 148.230 55.463, 109.475 26.606, 87.333 18.226 C 82.052 16.227, 73.658 15.571, 70.500 16.910" stroke="none" fill="#fbeefa" fill-rule="evenodd"/></svg>